<svg width="25" height="22" viewBox="0 0 25 22" fill="none" xmlns="http://www.w3.org/2000/svg">
<path d="M7.5 12.2222C5.175 12.2222 3.2375 13.7867 2.675 15.8889H0V18.3333H2.675C3.2375 20.4356 5.175 22 7.5 22C9.825 22 11.7625 20.4356 12.325 18.3333H25V15.8889H12.325C11.7625 13.7867 9.825 12.2222 7.5 12.2222ZM7.5 19.5556C6.125 19.5556 5 18.4556 5 17.1111C5 15.7667 6.125 14.6667 7.5 14.6667C8.875 14.6667 10 15.7667 10 17.1111C10 18.4556 8.875 19.5556 7.5 19.5556ZM22.325 3.66667C21.7625 1.56444 19.825 0 17.5 0C15.175 0 13.2375 1.56444 12.675 3.66667H0V6.11111H12.675C13.2375 8.21333 15.175 9.77778 17.5 9.77778C19.825 9.77778 21.7625 8.21333 22.325 6.11111H25V3.66667H22.325ZM17.5 7.33333C16.125 7.33333 15 6.23333 15 4.88889C15 3.54444 16.125 2.44444 17.5 2.44444C18.875 2.44444 20 3.54444 20 4.88889C20 6.23333 18.875 7.33333 17.5 7.33333Z" fill="white"/>
</svg>
